<?xml version="1.0" encoding="utf-8"?>
<!-- Generator: Adobe Illustrator 26.5.0, SVG Export Plug-In . SVG Version: 6.00 Build 0)  -->
<svg version="1.1" id="Layer_1" xmlns="http://www.w3.org/2000/svg" xmlns:xlink="http://www.w3.org/1999/xlink" x="0px" y="0px"
	 viewBox="0 0 201 37" style="enable-background:new 0 0 201 37;" xml:space="preserve">
<style type="text/css">
	.st0{fill:#009933;}
</style>
<path d="M17.4,0.5c10.5,0,17,5.8,17,14.6c0,8.8-6.5,14.6-17,14.6c-10.5,0-17-5.8-17-14.6C0.3,6.4,6.9,0.5,17.4,0.5z M26.5,15.2
	c0-5.6-3.5-8.9-9.2-8.9c-5.7,0-9.2,3.4-9.2,8.9c0,5.5,3.5,8.9,9.2,8.9S26.5,20.7,26.5,15.2z"/>
<path d="M43.6,18.5L35.2,8.3h8.3l4.1,5.6L52,8.3h8.5l-9,10.4l9.6,10.4h-8.7l-4.9-5.8l-4.7,5.8h-8.6L43.6,18.5z"/>
<path d="M77.1,8.1c7.2,0,12.1,4.3,12.1,10.9c0,6.4-4.9,10.9-12,10.9c-3.3,0-5.6-0.8-7.5-2.6v1.9h-6.5V1.3h6.5v9.5
	C71.4,9,73.8,8.1,77.1,8.1z M76,24.9c3.8,0,6.2-2.3,6.2-5.9s-2.4-6-6.2-6c-3.8,0-6.2,2.3-6.2,5.9C69.7,22.6,72.2,24.9,76,24.9z"/>
<path d="M115.7,29.1h-6.6V26c-1,1.2-2.3,2.1-3.7,2.7c-1.4,0.6-3,0.9-4.5,0.9c-3.7,0-6.3-1.2-7.8-3.3c-1.2-1.7-1.2-3.8-1.2-6.6V8.3
	h6.6v10c0,4.1,0.9,6,4.6,6c3.7,0,6.2-2.2,6.2-5.8V8.3h6.6V29.1z"/>
<path d="M120.2,29.1V8.3h6.6V11c2-2.3,4.1-3.5,6.4-3.5c0.5,0,1,0.1,1.8,0.1v5.4c-0.7-0.1-1.4-0.1-2.1-0.1c-3.8,0-6.2,2.5-6.2,6.7V29
	L120.2,29.1L120.2,29.1L120.2,29.1z"/>
<path d="M139.4,30.7h3.7c1.6,0,2.5-0.7,2.5-1.9c0-0.5-0.1-0.9-0.3-1.3l-9.2-19.2h7.3l5.6,13.4l6.2-13.4h7.2l-11.9,23.9
	c-0.9,1.9-2,3.1-3.3,3.8c-1.1,0.4-2.2,0.6-3.4,0.5h-4.6L139.4,30.7z"/>
<path class="st0" d="M163.5,36.3l14-28h-5.7l-14,28H163.5z"/>
<path class="st0" d="M174.9,36.3l14-28h-5.7l-14,28H174.9z"/>
<path class="st0" d="M186.3,36.3l14-28h-5.7l-14,28H186.3z"/>
</svg>
